<svg width="104" height="31" viewBox="0 0 104 31" fill="none" xmlns="http://www.w3.org/2000/svg">
<path d="M99.732 10.7808V6.23432C99.732 2.65399 98.2487 0.636503 95.2254 0.107978H95.1742C94.9867 0.0738801 94.7991 0.0511482 94.6059 0.028416H94.4468L93.9467 0H93.7989H10.5478C6.32525 0 4.29639 2.05158 4.29639 6.25137V10.8262L0 15.0828L4.27366 19.3565V23.9314C4.27366 27.5117 5.75694 29.5292 8.78033 30.0577H8.83716L9.40546 30.1316H9.56459H10.0647H10.2125H93.4579C97.6804 30.1316 99.7093 28.08 99.7093 23.8802V19.3281L104 15.0828L99.732 10.7808Z" fill="url(#paint0_linear_0_1593)"/>
<path d="M48.9993 23.7271H37.1729C36.4659 23.7279 35.7657 23.5892 35.1124 23.319C34.4592 23.0488 33.8656 22.6524 33.3657 22.1525C32.8658 21.6526 32.4694 21.059 32.1992 20.4057C31.929 19.7524 31.7903 19.0522 31.791 18.3452V11.8893C31.8 10.4658 32.3702 9.10323 33.3779 8.09768C34.3856 7.09213 35.7493 6.52476 37.1729 6.5188H48.8743V10.8209H37.5991C37.4008 10.8184 37.2039 10.8558 37.0204 10.931C36.8368 11.0062 36.6703 11.1176 36.5307 11.2585C36.3881 11.3959 36.2752 11.5611 36.199 11.7439C36.1227 11.9267 36.0848 12.1232 36.0874 12.3212V17.9247C36.0867 18.1237 36.1252 18.3209 36.2008 18.5049C36.2765 18.689 36.3877 18.8563 36.5282 18.9973C36.6686 19.1383 36.8355 19.2501 37.0193 19.3265C37.2031 19.4028 37.4001 19.4421 37.5991 19.4421H44.6973V16.8449H40.4009V13.3783H48.9993V23.7271Z" fill="#F7F8F8"/>
<path d="M68.1457 18.5601C68.1493 19.9105 67.6228 21.2083 66.6795 22.1746C66.2444 22.6653 65.7096 23.0576 65.1108 23.3252C64.512 23.5927 63.863 23.7294 63.2071 23.726H52.0115V19.4297H62.5593C62.7279 19.4298 62.8947 19.395 63.0492 19.3275C63.2038 19.26 63.3427 19.1613 63.4572 19.0375C63.5813 18.9209 63.6801 18.78 63.7476 18.6236C63.815 18.4671 63.8497 18.2986 63.8493 18.1282C63.8353 17.7911 63.6947 17.4717 63.4556 17.2337C63.2165 16.9956 62.8964 16.8564 62.5593 16.8439H55.893C55.2324 16.8494 54.5784 16.7127 53.9753 16.443C53.3722 16.1734 52.8343 15.7771 52.3979 15.281C51.4609 14.3168 50.9368 13.0253 50.9368 11.6808C50.9368 10.3363 51.4609 9.04478 52.3979 8.08058C52.8343 7.58455 53.3722 7.18823 53.9753 6.91857C54.5784 6.6489 55.2324 6.51219 55.893 6.51774H67.0602V10.8198H56.5352C56.3655 10.8197 56.1974 10.8539 56.0412 10.9203C55.8849 10.9867 55.7437 11.084 55.6259 11.2063C55.5023 11.3206 55.4041 11.4596 55.3375 11.6143C55.271 11.7689 55.2376 11.9358 55.2395 12.1042C55.2387 12.2741 55.2726 12.4423 55.3391 12.5986C55.4055 12.755 55.5031 12.8961 55.6259 13.0135C55.7437 13.1358 55.8849 13.233 56.0412 13.2994C56.1974 13.3658 56.3655 13.4 56.5352 13.3999H63.2071C63.8649 13.3946 64.516 13.5321 65.1155 13.8029C65.715 14.0737 66.2486 14.4714 66.6795 14.9685C67.6209 15.9267 68.1476 17.2168 68.1457 18.5601Z" fill="#F7F8F8"/>
<path d="M24.1189 6.5188H16.5775V10.8209H23.687C23.8843 10.8201 24.0797 10.8584 24.2621 10.9336C24.4444 11.0087 24.6101 11.1192 24.7496 11.2586C24.8891 11.3981 24.9995 11.5638 25.0747 11.7462C25.1498 11.9285 25.1881 12.124 25.1874 12.3212V17.9247C25.1906 18.124 25.1536 18.3219 25.0784 18.5065C25.0031 18.6911 24.8914 18.8585 24.7498 18.9988C24.6123 19.1414 24.4471 19.2543 24.2643 19.3305C24.0815 19.4068 23.8851 19.4447 23.687 19.4421H16.5775V10.8209H12.7415V22.0222C12.7415 23.0451 13.2018 23.6134 14.1111 23.7271H24.1189C25.5424 23.7196 26.9052 23.1496 27.9102 22.1415C28.9151 21.1333 29.4808 19.7687 29.4838 18.3452V11.8893C29.4704 10.4701 28.9011 9.11262 27.8981 8.10849C26.895 7.10437 25.5382 6.53361 24.1189 6.5188Z" fill="#F2F2F2"/>
<path d="M82.6317 19.4307V6.5188H78.3296V19.4307H75.7722C75.3723 19.4307 74.9886 19.2722 74.7053 18.99C74.4219 18.7077 74.262 18.3246 74.2605 17.9247V6.55858H69.9641V18.3452C69.9634 19.0522 70.1021 19.7524 70.3723 20.4057C70.6425 21.059 71.0389 21.6526 71.5388 22.1525C72.0387 22.6524 72.6322 23.0488 73.2855 23.319C73.9388 23.5892 74.639 23.7279 75.346 23.7271H86.6837V19.4307H82.6317Z" fill="#F2F2F2"/>
<path d="M90.9859 18.0213V11.2016V7.9282C90.9899 7.58897 90.8714 7.25969 90.6521 7.00079C90.4329 6.74189 90.1277 6.57076 89.7924 6.5188H86.6895V19.3966H90.9915L90.9859 18.0213Z" fill="#F2F2F2"/>
<path d="M86.6894 19.3972H86.6838V19.4253H86.6894V19.3972Z" fill="#172A88"/>
<path d="M13.52 7.45606C13.52 7.82023 13.412 8.17623 13.2097 8.47903C13.0074 8.78184 12.7198 9.01784 12.3834 9.15721C12.0469 9.29657 11.6767 9.33304 11.3195 9.26199C10.9623 9.19094 10.6342 9.01557 10.3767 8.75806C10.1192 8.50055 9.94383 8.17246 9.87278 7.81528C9.80174 7.4581 9.8382 7.08787 9.97757 6.75142C10.1169 6.41496 10.3529 6.12739 10.6557 5.92506C10.9585 5.72274 11.3145 5.61475 11.6787 5.61475C11.9205 5.61475 12.16 5.66237 12.3834 5.75491C12.6068 5.84744 12.8097 5.98307 12.9807 6.15405C13.1517 6.32504 13.2873 6.52802 13.3799 6.75142C13.4724 6.97482 13.52 7.21425 13.52 7.45606Z" fill="white"/>
<path d="M90.4856 22.6516C90.4856 22.2874 90.5936 21.9314 90.7959 21.6286C90.9982 21.3258 91.2858 21.0898 91.6223 20.9505C91.9587 20.8111 92.3289 20.7746 92.6861 20.8457C93.0433 20.9167 93.3714 21.0921 93.6289 21.3496C93.8864 21.6071 94.0618 21.9352 94.1328 22.2924C94.2039 22.6496 94.1674 23.0198 94.0281 23.3563C93.8887 23.6927 93.6527 23.9803 93.3499 24.1826C93.0471 24.3849 92.6911 24.4929 92.3269 24.4929C91.8386 24.4929 91.3702 24.2989 91.0249 23.9536C90.6796 23.6083 90.4856 23.14 90.4856 22.6516Z" fill="white"/>
<defs>
<linearGradient id="paint0_linear_0_1593" x1="0" y1="15.0544" x2="104.006" y2="15.0544" gradientUnits="userSpaceOnUse">
<stop offset="0.17" stop-color="#009944"/>
<stop offset="0.66" stop-color="#1D2088"/>
</linearGradient>
</defs>
</svg>
