<svg width="102" height="23" viewBox="0 0 102 23" fill="none" xmlns="http://www.w3.org/2000/svg">
<path d="M47.3673 22.0646H33.0629C32.2079 22.0655 31.361 21.8965 30.5708 21.5673C29.7806 21.2382 29.0627 20.7553 28.458 20.1462C27.8534 19.5372 27.3739 18.8141 27.0471 18.0182C26.7203 17.2224 26.5526 16.3694 26.5535 15.5081V7.64317C26.5643 5.90895 27.2541 4.24906 28.4729 3.02405C29.6917 1.79904 31.3411 1.10785 33.0629 1.10059H47.2161V6.34158H33.5785C33.3386 6.33852 33.1005 6.38415 32.8785 6.47574C32.6565 6.56733 32.455 6.703 32.2862 6.87468C32.1137 7.04212 31.9772 7.2434 31.885 7.46607C31.7928 7.68875 31.7468 7.9281 31.75 8.16935V14.9958C31.7491 15.2382 31.7958 15.4784 31.8873 15.7027C31.9787 15.9269 32.1133 16.1307 32.2831 16.3025C32.453 16.4742 32.6549 16.6105 32.8772 16.7035C33.0995 16.7965 33.3378 16.8443 33.5785 16.8443H42.1638V13.6803H36.9672V9.45709H47.3673V22.0646Z" fill="#1E2F44"/>
<path d="M70.525 15.7714C70.5293 17.4165 69.8926 18.9975 68.7516 20.1747C68.2254 20.7726 67.5785 21.2504 66.8542 21.5764C66.13 21.9023 65.345 22.0688 64.5517 22.0647H51.0104V16.8307H63.7681C63.9721 16.8308 64.1738 16.7885 64.3607 16.7063C64.5477 16.6241 64.7157 16.5038 64.8542 16.353C65.0043 16.2108 65.1238 16.0392 65.2054 15.8487C65.287 15.6581 65.3289 15.4527 65.3284 15.2452C65.3114 14.8346 65.1414 14.4454 64.8522 14.1554C64.563 13.8654 64.1759 13.6959 63.7681 13.6805H55.7052C54.9061 13.6873 54.1151 13.5208 53.3856 13.1922C52.6562 12.8637 52.0055 12.3809 51.4778 11.7766C50.3445 10.602 49.7104 9.02859 49.7104 7.39066C49.7104 5.75274 50.3445 4.17935 51.4778 3.00471C52.0055 2.40042 52.6562 1.91761 53.3856 1.58909C54.1151 1.26057 54.9061 1.09403 55.7052 1.10078H69.2121V6.34177H56.4819C56.2766 6.34168 56.0733 6.38333 55.8843 6.46422C55.6953 6.54512 55.5245 6.6636 55.3821 6.81256C55.2326 6.95188 55.1138 7.1212 55.0333 7.30962C54.9528 7.49803 54.9124 7.70135 54.9147 7.90645C54.9138 8.11339 54.9548 8.31835 55.0351 8.5088C55.1155 8.69925 55.2335 8.87122 55.3821 9.0142C55.5245 9.16316 55.6953 9.28164 55.8843 9.36253C56.0733 9.44343 56.2766 9.48508 56.4819 9.48498H64.5517C65.3473 9.4785 66.1349 9.64599 66.86 9.97589C67.5851 10.3058 68.2305 10.7903 68.7516 11.3958C69.8903 12.5632 70.5273 14.1349 70.525 15.7714Z" fill="#1E2F44"/>
<path d="M17.2738 1.10059H8.15225V6.34158H16.7514C16.9899 6.34066 17.2263 6.38731 17.4469 6.47884C17.6674 6.57037 17.8679 6.70497 18.0365 6.87488C18.2052 7.04478 18.3389 7.24664 18.4297 7.46881C18.5206 7.69098 18.5669 7.92906 18.566 8.16935V14.9958C18.57 15.2386 18.5251 15.4797 18.4342 15.7045C18.3432 15.9294 18.208 16.1334 18.0367 16.3043C17.8705 16.478 17.6707 16.6155 17.4496 16.7084C17.2285 16.8013 16.9909 16.8476 16.7514 16.8443H8.15225V6.34158H3.51245V19.9875C3.51245 21.2337 4.06923 21.9261 5.16903 22.0645H17.2738C18.9955 22.0554 20.6438 21.3611 21.8593 20.1329C23.0749 18.9047 23.759 17.2423 23.7626 15.5081V7.64317C23.7465 5.91419 23.0579 4.2605 21.8447 3.03723C20.6314 1.81395 18.9903 1.11863 17.2738 1.10059Z" fill="#1E2F44"/>
<path d="M88.0463 16.8305V1.10059H82.8428V16.8305H79.7496C79.2659 16.8305 78.8018 16.6374 78.4591 16.2935C78.1164 15.9497 77.923 15.483 77.9212 14.9958V1.14905H72.7246V15.5081C72.7237 16.3694 72.8915 17.2224 73.2183 18.0182C73.5451 18.8141 74.0245 19.5372 74.6292 20.1462C75.2338 20.7553 75.9518 21.2382 76.7419 21.5673C77.5321 21.8965 78.379 22.0655 79.2341 22.0646H92.9473V16.8305H88.0463Z" fill="#1E2F44"/>
<path d="M98.1507 15.1135V6.80544V2.81758C98.1555 2.40432 98.0122 2.00317 97.747 1.68777C97.4819 1.37237 97.1127 1.16388 96.7072 1.10059H92.9541V16.7889H98.1576L98.1507 15.1135Z" fill="#1E2F44"/>
<path d="M4.45421 2.24317C4.45421 2.68683 4.32359 3.12052 4.07888 3.48941C3.83416 3.8583 3.48633 4.14581 3.07938 4.31559C2.67243 4.48537 2.22464 4.52979 1.79262 4.44324C1.3606 4.35669 0.963771 4.14305 0.652305 3.82933C0.340839 3.51562 0.128727 3.11593 0.042794 2.68079C-0.0431393 2.24566 0.000965551 1.79463 0.16953 1.38475C0.338094 0.97486 0.623547 0.624525 0.989792 0.378042C1.35604 0.131559 1.78663 0 2.2271 0C2.51957 0 2.80918 0.0580209 3.07938 0.170751C3.34959 0.283481 3.5951 0.448712 3.80191 0.65701C4.00871 0.865308 4.17276 1.11259 4.28468 1.38475C4.3966 1.6569 4.45421 1.94859 4.45421 2.24317Z" fill="#1E2F44"/>
<path d="M97.5459 20.7568C97.5459 20.3132 97.6765 19.8795 97.9212 19.5106C98.1659 19.1417 98.5138 18.8542 98.9207 18.6844C99.3277 18.5146 99.7755 18.4702 100.207 18.5568C100.64 18.6433 101.036 18.857 101.348 19.1707C101.659 19.4844 101.871 19.8841 101.957 20.3192C102.043 20.7544 101.999 21.2054 101.831 21.6153C101.662 22.0252 101.377 22.3755 101.01 22.622C100.644 22.8685 100.213 23 99.773 23C99.1823 23 98.6159 22.7637 98.1982 22.343C97.7805 21.9223 97.5459 21.3518 97.5459 20.7568Z" fill="#1E2F44"/>
</svg>
